<mxfile host="app.diagrams.net" agent="Mozilla/5.0 (Windows NT 10.0; Win64; x64) AppleWebKit/537.36 (KHTML, like Gecko) Chrome/134.0.0.0 Safari/537.36 Edg/134.0.0.0" version="26.1.3">
  <diagram name="Page-1" id="1-qeFgqGOz403MVjEG81">
    <mxGraphModel dx="786" dy="1328" grid="1" gridSize="10" guides="1" tooltips="1" connect="1" arrows="1" fold="1" page="1" pageScale="1" pageWidth="1169" pageHeight="827" math="0" shadow="0">
      <root>
        <mxCell id="0" />
        <mxCell id="1" parent="0" />
        <mxCell id="Rp65xWElyio5u-WXPTjw-1" value="" style="endArrow=open;startArrow=none;endFill=0;startFill=0;endSize=8;html=1;verticalAlign=bottom;labelBackgroundColor=none;strokeWidth=1;rounded=0;exitX=0.042;exitY=0.733;exitDx=0;exitDy=0;exitPerimeter=0;entryX=0;entryY=0;entryDx=0;entryDy=0;" edge="1" parent="1" source="Rp65xWElyio5u-WXPTjw-2" target="Rp65xWElyio5u-WXPTjw-5">
          <mxGeometry width="160" relative="1" as="geometry">
            <mxPoint x="80" y="-690" as="sourcePoint" />
            <mxPoint x="274.5" y="-690" as="targetPoint" />
          </mxGeometry>
        </mxCell>
        <mxCell id="Rp65xWElyio5u-WXPTjw-2" value="&lt;font style=&quot;font-size: 9px;&quot;&gt;execute(internships: InternshipList, user: UserProfile)&lt;/font&gt;" style="text;html=1;align=center;verticalAlign=middle;resizable=0;points=[];autosize=1;strokeColor=none;fillColor=none;" vertex="1" parent="1">
          <mxGeometry x="50" y="-712" width="240" height="30" as="geometry" />
        </mxCell>
        <mxCell id="Rp65xWElyio5u-WXPTjw-3" value=": AddInternshipCommand" style="rounded=0;dashed=0;whiteSpace=wrap;html=1;" vertex="1" parent="1">
          <mxGeometry x="220" y="-760" width="150" height="30" as="geometry" />
        </mxCell>
        <mxCell id="Rp65xWElyio5u-WXPTjw-4" value="" style="html=1;verticalAlign=bottom;startArrow=none;endArrow=none;dashed=1;rounded=0;" edge="1" parent="1" source="Rp65xWElyio5u-WXPTjw-5" target="Rp65xWElyio5u-WXPTjw-3">
          <mxGeometry relative="1" as="geometry" />
        </mxCell>
        <mxCell id="Rp65xWElyio5u-WXPTjw-5" value="" style="rounded=0;dashed=0;" vertex="1" parent="1">
          <mxGeometry x="290" y="-690" width="10" height="270" as="geometry" />
        </mxCell>
        <mxCell id="Rp65xWElyio5u-WXPTjw-6" value="" style="shape=umlDestroy;dashed=0;targetShapes=umlLifeline;fillColor=#e51400;fontColor=#ffffff;strokeColor=#B20000;strokeWidth=3;" vertex="1" parent="1">
          <mxGeometry x="275" y="-443" width="40" height="40" as="geometry" />
        </mxCell>
        <mxCell id="Rp65xWElyio5u-WXPTjw-7" value="" style="whiteSpace=wrap;html=1;" vertex="1" parent="1">
          <mxGeometry x="295" y="-660" width="10" height="20" as="geometry" />
        </mxCell>
        <mxCell id="Rp65xWElyio5u-WXPTjw-8" value="" style="endArrow=open;startArrow=none;endFill=0;startFill=0;endSize=8;html=1;verticalAlign=bottom;labelBackgroundColor=none;strokeWidth=1;rounded=0;entryX=1;entryY=0;entryDx=0;entryDy=0;" edge="1" parent="1" target="Rp65xWElyio5u-WXPTjw-7">
          <mxGeometry width="160" relative="1" as="geometry">
            <mxPoint x="300" y="-680" as="sourcePoint" />
            <mxPoint x="350" y="-670" as="targetPoint" />
            <Array as="points">
              <mxPoint x="330" y="-680" />
              <mxPoint x="330" y="-670" />
            </Array>
          </mxGeometry>
        </mxCell>
        <mxCell id="Rp65xWElyio5u-WXPTjw-9" value="&lt;font style=&quot;font-size: 9px;&quot;&gt;isValidParameters()&lt;/font&gt;" style="text;html=1;align=center;verticalAlign=middle;resizable=0;points=[];autosize=1;strokeColor=none;fillColor=none;" vertex="1" parent="1">
          <mxGeometry x="295" y="-702" width="100" height="30" as="geometry" />
        </mxCell>
        <mxCell id="Rp65xWElyio5u-WXPTjw-10" value="" style="html=1;verticalAlign=bottom;labelBackgroundColor=none;endArrow=open;endFill=0;dashed=1;rounded=0;exitX=1;exitY=1;exitDx=0;exitDy=0;entryX=1;entryY=0.25;entryDx=0;entryDy=0;" edge="1" parent="1" source="Rp65xWElyio5u-WXPTjw-7" target="Rp65xWElyio5u-WXPTjw-5">
          <mxGeometry width="160" relative="1" as="geometry">
            <mxPoint x="310" y="-640" as="sourcePoint" />
            <mxPoint x="330" y="-610" as="targetPoint" />
            <Array as="points">
              <mxPoint x="330" y="-640" />
              <mxPoint x="330" y="-630" />
            </Array>
          </mxGeometry>
        </mxCell>
        <mxCell id="Rp65xWElyio5u-WXPTjw-11" value="&lt;font style=&quot;font-size: 9px;&quot;&gt;:boolean&lt;/font&gt;" style="text;html=1;align=center;verticalAlign=middle;resizable=0;points=[];autosize=1;strokeColor=none;fillColor=none;" vertex="1" parent="1">
          <mxGeometry x="296" y="-661" width="60" height="30" as="geometry" />
        </mxCell>
        <mxCell id="Rp65xWElyio5u-WXPTjw-12" value="&lt;b&gt;alt&lt;/b&gt;" style="shape=umlFrame;whiteSpace=wrap;html=1;pointerEvents=0;recursiveResize=0;container=1;collapsible=0;width=60;height=20;fillColor=#eeeeee;strokeColor=#36393d;" vertex="1" parent="1">
          <mxGeometry x="170" y="-610" width="250" height="160" as="geometry" />
        </mxCell>
        <mxCell id="Rp65xWElyio5u-WXPTjw-13" value="&lt;b&gt;[not valid]&lt;/b&gt;" style="text;html=1;" vertex="1" parent="Rp65xWElyio5u-WXPTjw-12">
          <mxGeometry width="100" height="20" relative="1" as="geometry">
            <mxPoint x="60" as="offset" />
          </mxGeometry>
        </mxCell>
        <mxCell id="Rp65xWElyio5u-WXPTjw-14" value="" style="line;strokeWidth=1;dashed=1;labelPosition=center;verticalLabelPosition=bottom;align=left;verticalAlign=top;spacingLeft=20;spacingTop=15;html=1;whiteSpace=wrap;" vertex="1" parent="Rp65xWElyio5u-WXPTjw-12">
          <mxGeometry y="50" width="250" height="60" as="geometry" />
        </mxCell>
        <mxCell id="Rp65xWElyio5u-WXPTjw-15" value="&lt;b&gt;[else]&lt;/b&gt;" style="text;html=1;align=center;verticalAlign=middle;resizable=0;points=[];autosize=1;strokeColor=none;fillColor=none;" vertex="1" parent="Rp65xWElyio5u-WXPTjw-12">
          <mxGeometry y="80" width="50" height="30" as="geometry" />
        </mxCell>
        <mxCell id="Rp65xWElyio5u-WXPTjw-16" value="ref" style="shape=umlFrame;whiteSpace=wrap;html=1;pointerEvents=0;recursiveResize=0;container=1;collapsible=0;width=40;height=20;swimlaneFillColor=light-dark(#fad9d5, #ededed);strokeColor=light-dark(#ff0000, #ededed);" vertex="1" parent="Rp65xWElyio5u-WXPTjw-12">
          <mxGeometry x="25" y="30" width="200" height="40" as="geometry" />
        </mxCell>
        <mxCell id="Rp65xWElyio5u-WXPTjw-17" value="if wrong parameters" style="text;html=1;align=center;verticalAlign=middle;resizable=0;points=[];autosize=1;strokeColor=none;fillColor=none;" vertex="1" parent="Rp65xWElyio5u-WXPTjw-16">
          <mxGeometry x="35" y="-4" width="130" height="30" as="geometry" />
        </mxCell>
        <mxCell id="Rp65xWElyio5u-WXPTjw-18" value="ref" style="shape=umlFrame;whiteSpace=wrap;html=1;pointerEvents=0;recursiveResize=0;container=1;collapsible=0;width=40;height=20;swimlaneFillColor=light-dark(#fad9d5, #ededed);strokeColor=light-dark(#ff0000, #ededed);" vertex="1" parent="1">
          <mxGeometry x="195" y="-500" width="200" height="40" as="geometry" />
        </mxCell>
        <mxCell id="Rp65xWElyio5u-WXPTjw-19" value="if correct parameters" style="text;html=1;align=center;verticalAlign=middle;resizable=0;points=[];autosize=1;strokeColor=none;fillColor=none;" vertex="1" parent="Rp65xWElyio5u-WXPTjw-18">
          <mxGeometry x="35" y="-4" width="130" height="30" as="geometry" />
        </mxCell>
      </root>
    </mxGraphModel>
  </diagram>
</mxfile>
